<svg width="21" height="16" viewBox="0 0 21 16" fill="none" xmlns="http://www.w3.org/2000/svg">
    <path d="M8.77127 1.28924C9.06908 1.00135 9.07713 0.526549 8.78924 0.228734C8.50135 -0.0690806 8.02655 -0.0771282 7.72873 0.210759L0.228733 7.46076C0.0825483 7.60207 0 7.79668 0 8C0 8.20332 0.0825483 8.39793 0.228733 8.53924L7.72873 15.7892C8.02655 16.0771 8.50135 16.0691 8.78924 15.7713C9.07713 15.4735 9.06908 14.9986 8.77127 14.7108L2.60496 8.75H20.25C20.6642 8.75 21 8.41421 21 8C21 7.58579 20.6642 7.25 20.25 7.25H2.60497L8.77127 1.28924Z" fill="#0B0E14"/>
</svg>
