<svg version="1.1" xmlns="http://www.w3.org/2000/svg" viewBox="0 0 198.67985205018977 197.87910838512704" width="397.35970410037953" height="395.7582167702541">
  <!-- svg-source:excalidraw -->
  
  <defs>
    <style>
      @font-face {
        font-family: "Virgil";
        src: url("https://excalidraw.com/Virgil.woff2");
      }
      @font-face {
        font-family: "Cascadia";
        src: url("https://excalidraw.com/Cascadia.woff2");
      }
    </style>
  </defs>
  <g stroke-linecap="round"><g transform="translate(101.74443633437022 11.528312128037214) rotate(0 -2.404510309275338 87.4112420645263)" fill-rule="evenodd"><path d="M-0.18 1.84 L17.13 37.13 L58.91 24.67 L47.92 65.84 L85.73 88.41 L50.17 110.58 L59.02 153.07 L17.56 137.58 L-3.11 173.63 L-22.42 138.37 L-61.23 150.18 L-52.6 109.12 L-90.87 87.69 L-52.69 67.54 L-61.82 24.34 L-22.57 36.36 L-0.79 1.46" stroke="none" stroke-width="0" fill="#82c91e" fill-rule="evenodd"></path><path d="M-0.36 -1.53 C5.25 12.89, 11.71 24.05, 20.15 36.57 M-0.03 -0.83 C5.19 10.11, 9.14 19.48, 17.71 37.93 M17.26 36.56 C28.85 36.07, 41.35 29.61, 60.6 26.14 M17.72 37.38 C33.31 33.91, 50.38 28.49, 59.78 25.74 M59.99 24.32 C58.25 37.08, 52.55 48.66, 47.04 66.62 M60.11 26.09 C57.07 39.23, 52.11 52.31, 47.97 68.3 M49.13 65.89 C57.71 70, 62.78 75.03, 84.19 89.78 M47.33 67.03 C55.17 71.15, 64.04 77.22, 84.73 89.09 M86.94 88.03 C71.97 97.25, 60.89 100.96, 49.77 107.47 M85.84 89.46 C75.39 93.29, 66.65 98.89, 48.01 108.41 M49.66 108.54 C53.29 120.72, 54.42 130.17, 61.67 152.22 M49.05 107.95 C53.11 122.41, 56.39 138.6, 60.01 151.34 M58.7 152.93 C49.23 147.16, 40.48 145.58, 16.98 136.22 M60.16 152.33 C49.81 148.66, 41.76 146.19, 18.05 137.96 M15.7 137.34 C14.45 147.2, 7.35 153.13, -2.17 174.61 M16.96 137.96 C10.89 146.95, 5.51 158.91, -4.04 176.03 M-3.69 175.91 C-10.35 161.55, -19.98 143.74, -25.5 137.86 M-2.72 176.35 C-9.13 167.5, -13.03 156.82, -25.01 136.59 M-22.65 137.05 C-35.16 140.78, -49.97 147.47, -61.91 149.81 M-24.16 136.83 C-37.22 141.41, -49.09 145.57, -61.92 151.43 M-62.54 149.59 C-60.31 133.94, -53.69 119.88, -50.81 108.68 M-63.43 149.93 C-60.71 141.51, -57.97 131.05, -51.75 109.28 M-54.26 107.7 C-68.88 100.52, -79.82 92.17, -91.67 86.24 M-53.02 109.65 C-61.62 104.09, -69.96 98.64, -89.26 86.41 M-91.74 86.13 C-81.14 81.7, -73.95 76.82, -53.57 69.11 M-89.71 86.03 C-76.9 79.52, -63.8 72.87, -54.83 67.16 M-53.54 69.47 C-55.48 58.71, -58.98 47.53, -60.47 24.1 M-54.41 67.69 C-57.19 57.5, -57.96 48.39, -62.09 26.64 M-60.07 25.5 C-46.04 28.79, -34.58 32.2, -25.21 35.26 M-61.73 26.49 C-54.23 28, -45.58 29.47, -24.18 37.08 M-23.64 38.22 C-16.51 22.17, -3.86 9.45, 1.11 1.4 M-24.36 35.92 C-16 25.09, -7.58 11.9, 0.48 0.64 M0 0 C0 0, 0 0, 0 0 M0 0 C0 0, 0 0, 0 0" stroke="#2b8a3e" stroke-width="4" fill="none"></path></g></g><g transform="translate(86.41603933248143 58.00398449625777) rotate(0 -0.7245358105039941 39.331943998783885)" stroke="none"><path fill="#2b8a3e" d="M 2.10,0.10 Q 2.10,0.10 2.09,1.35 2.09,2.60 2.11,3.76 2.14,4.92 2.10,6.59 2.06,8.27 2.02,10.06 1.97,11.84 1.95,13.56 1.93,15.27 1.83,17.36 1.73,19.46 1.79,21.15 1.86,22.84 1.91,24.48 1.96,26.13 1.98,27.78 2.01,29.43 1.96,31.12 1.92,32.82 1.71,34.86 1.49,36.90 1.29,38.79 1.09,40.68 1.01,42.49 0.92,44.31 0.91,45.97 0.91,47.64 0.95,49.06 0.99,50.48 1.05,51.62 1.12,52.76 1.18,53.90 1.23,55.03 1.34,56.94 1.45,58.84 1.50,61.07 1.56,63.30 1.48,64.79 1.41,66.28 1.46,67.88 1.50,69.47 1.50,70.91 1.49,72.36 1.55,73.52 1.61,74.69 2.02,76.30 2.43,77.90 2.47,78.41 2.51,78.92 2.38,79.41 2.26,79.90 1.99,80.33 1.71,80.76 1.32,81.08 0.92,81.40 0.44,81.57 -0.03,81.75 -0.53,81.76 -1.04,81.77 -1.53,81.62 -2.01,81.47 -2.43,81.18 -2.84,80.88 -3.14,80.47 -3.43,80.05 -3.58,79.57 -3.73,79.08 -3.72,78.57 -3.70,78.06 -3.53,77.59 -3.35,77.11 -3.03,76.71 -2.71,76.32 -2.29,76.04 -1.86,75.77 -1.36,75.65 -0.87,75.53 -0.36,75.57 0.13,75.61 0.60,75.81 1.07,76.01 1.45,76.35 1.83,76.69 2.08,77.13 2.33,77.58 2.42,78.08 2.52,78.58 2.45,79.08 2.38,79.58 2.15,80.04 1.93,80.49 1.57,80.85 1.21,81.21 0.75,81.44 0.29,81.67 -0.20,81.73 -0.70,81.80 -1.20,81.71 -1.70,81.61 -2.15,81.36 -2.59,81.11 -2.93,80.73 -3.27,80.35 -3.47,79.88 -3.67,79.42 -3.67,79.42 -3.67,79.42 -4.06,76.74 -4.46,74.06 -4.33,72.89 -4.21,71.73 -4.08,70.56 -3.95,69.40 -3.84,67.73 -3.72,66.07 -3.67,64.68 -3.63,63.29 -3.57,61.07 -3.52,58.84 -3.41,56.93 -3.29,55.02 -3.23,53.88 -3.17,52.74 -3.10,51.59 -3.02,50.44 -2.95,49.00 -2.88,47.56 -2.82,45.86 -2.76,44.15 -2.70,42.24 -2.63,40.32 -2.47,38.48 -2.31,36.63 -2.24,34.66 -2.17,32.68 -2.11,31.07 -2.04,29.46 -2.04,27.82 -2.03,26.19 -2.03,24.58 -2.04,22.98 -2.09,21.22 -2.14,19.46 -2.24,17.36 -2.34,15.26 -2.36,13.55 -2.37,11.83 -2.41,10.04 -2.45,8.24 -2.46,6.53 -2.48,4.82 -2.40,3.60 -2.33,2.39 -2.21,1.14 -2.10,-0.10 -2.06,-0.35 -2.01,-0.60 -1.91,-0.83 -1.81,-1.06 -1.66,-1.26 -1.50,-1.47 -1.31,-1.62 -1.11,-1.78 -0.88,-1.89 -0.65,-2.00 -0.40,-2.05 -0.15,-2.10 0.09,-2.08 0.35,-2.07 0.59,-2.00 0.84,-1.93 1.05,-1.80 1.27,-1.67 1.45,-1.49 1.64,-1.32 1.77,-1.10 1.91,-0.88 1.98,-0.64 2.06,-0.40 2.08,-0.15 2.10,0.10 2.10,0.10 L 2.10,0.10 Z"></path></g><g transform="translate(78.96367099586996 58.00398449625777) rotate(0 25.565763599209504 17.49236456788023)" stroke="none"><path fill="#2b8a3e" d="M -0.63,-2.17 Q -0.63,-2.17 0.79,-2.60 2.21,-3.02 3.58,-3.32 4.94,-3.62 6.25,-3.77 7.55,-3.93 9.24,-4.05 10.93,-4.16 12.60,-4.22 14.28,-4.28 16.01,-4.28 17.73,-4.28 19.36,-4.28 20.98,-4.29 22.63,-4.29 24.27,-4.28 25.78,-4.19 27.29,-4.09 28.49,-4.08 29.70,-4.08 31.25,-3.93 32.80,-3.79 34.03,-3.77 35.26,-3.74 36.96,-3.44 38.66,-3.15 40.01,-2.79 41.35,-2.44 42.45,-2.06 43.56,-1.67 44.75,-1.04 45.94,-0.40 46.86,0.14 47.79,0.69 48.65,1.35 49.52,2.01 50.51,3.25 51.51,4.50 52.32,5.87 53.13,7.25 53.40,8.50 53.67,9.76 53.77,11.14 53.87,12.51 53.90,14.25 53.94,15.99 53.22,17.96 52.49,19.92 51.65,21.00 50.81,22.08 50.03,22.95 49.26,23.82 48.36,24.63 47.46,25.45 45.93,27.02 44.40,28.60 43.26,29.44 42.13,30.28 40.36,31.38 38.60,32.48 36.57,33.18 34.53,33.87 32.72,34.43 30.91,34.98 29.10,35.31 27.29,35.64 25.87,35.91 24.45,36.17 23.35,36.38 22.26,36.60 20.72,36.92 19.19,37.24 17.94,37.62 16.69,38.00 15.54,38.30 14.39,38.59 12.16,39.39 9.94,40.18 9.43,40.17 8.92,40.16 8.44,39.98 7.96,39.80 7.56,39.48 7.16,39.16 6.89,38.73 6.61,38.30 6.49,37.80 6.36,37.31 6.41,36.79 6.45,36.28 6.65,35.81 6.85,35.34 7.19,34.96 7.54,34.58 7.98,34.33 8.43,34.08 8.93,33.98 9.43,33.89 9.94,33.96 10.45,34.03 10.91,34.25 11.36,34.48 11.73,34.84 12.09,35.21 12.32,35.66 12.54,36.12 12.61,36.63 12.68,37.14 12.58,37.64 12.49,38.14 12.23,38.59 11.98,39.03 11.60,39.38 11.22,39.72 10.75,39.92 10.28,40.12 9.77,40.16 9.26,40.20 8.76,40.08 8.27,39.96 7.83,39.68 7.40,39.40 7.08,39.00 6.76,38.61 6.59,38.12 6.41,37.64 6.40,37.13 6.38,36.62 6.53,36.13 6.68,35.64 6.98,35.23 7.28,34.81 7.70,34.51 8.11,34.21 8.60,34.06 9.09,33.91 9.09,33.91 9.09,33.91 10.81,33.35 12.52,32.79 13.75,32.59 14.98,32.39 16.08,32.28 17.17,32.18 18.36,31.99 19.54,31.80 21.56,31.59 23.58,31.38 24.96,31.13 26.35,30.88 27.78,30.57 29.22,30.26 30.84,29.58 32.45,28.90 34.01,28.09 35.57,27.29 37.08,26.41 38.59,25.52 40.10,24.24 41.61,22.96 42.52,21.94 43.43,20.93 44.74,19.63 46.05,18.34 47.04,16.95 48.03,15.56 48.09,14.23 48.15,12.89 47.97,10.87 47.78,8.86 46.92,7.52 46.06,6.18 44.72,5.12 43.38,4.06 41.68,3.15 39.98,2.24 38.92,1.89 37.87,1.54 36.45,1.31 35.04,1.08 33.70,0.99 32.36,0.89 30.93,0.76 29.51,0.62 28.21,0.53 26.91,0.43 25.60,0.29 24.28,0.16 22.65,0.17 21.02,0.19 19.41,0.21 17.81,0.23 16.14,0.28 14.48,0.34 12.92,0.42 11.37,0.50 9.67,0.71 7.96,0.91 6.89,0.96 5.81,1.01 4.65,1.18 3.49,1.36 2.06,1.76 0.63,2.17 0.36,2.21 0.09,2.26 -0.17,2.23 -0.44,2.21 -0.70,2.13 -0.96,2.04 -1.19,1.90 -1.42,1.75 -1.61,1.55 -1.80,1.36 -1.94,1.12 -2.07,0.89 -2.15,0.62 -2.23,0.36 -2.24,0.09 -2.25,-0.17 -2.20,-0.44 -2.14,-0.71 -2.03,-0.95 -1.91,-1.20 -1.74,-1.41 -1.57,-1.62 -1.35,-1.79 -1.13,-1.95 -0.88,-2.06 -0.63,-2.17 -0.63,-2.17 L -0.63,-2.17 Z"></path></g><g transform="translate(88.2791314166343 97.12891826346913) rotate(0 21.42555896775866 20.079992462537035)" stroke="none"><path fill="#2b8a3e" d="M -0.33,-2.19 Q -0.33,-2.19 1.64,-2.40 3.62,-2.62 5.42,-2.85 7.22,-3.07 8.82,-3.22 10.42,-3.36 12.07,-3.42 13.71,-3.48 15.22,-3.42 16.72,-3.35 18.34,-3.13 19.97,-2.91 21.49,-2.58 23.02,-2.25 24.49,-1.81 25.97,-1.37 27.57,-0.72 29.18,-0.08 30.36,0.38 31.55,0.85 33.57,1.63 35.59,2.41 36.86,3.23 38.12,4.06 39.26,4.96 40.40,5.86 41.95,7.17 43.49,8.48 44.30,9.37 45.11,10.25 45.89,11.26 46.67,12.26 47.34,13.42 48.00,14.58 48.54,15.53 49.08,16.48 49.65,17.86 50.22,19.24 50.53,20.32 50.85,21.39 51.16,22.65 51.47,23.90 51.56,25.60 51.65,27.31 51.42,28.72 51.19,30.13 50.53,31.58 49.86,33.03 48.61,34.46 47.36,35.90 45.82,36.90 44.28,37.91 43.05,38.67 41.83,39.43 39.66,40.62 37.50,41.81 36.14,42.35 34.78,42.88 32.08,43.32 29.38,43.76 28.08,43.92 26.78,44.08 25.20,44.14 23.62,44.19 22.13,44.20 20.63,44.21 19.10,44.20 17.57,44.18 16.21,44.19 14.85,44.19 13.27,44.06 11.69,43.92 10.58,43.90 9.46,43.87 6.80,43.81 4.13,43.75 2.70,43.74 1.28,43.73 -0.39,43.68 -2.07,43.63 -3.96,43.54 -5.86,43.45 -6.25,43.38 -6.64,43.30 -6.99,43.11 -7.34,42.91 -7.61,42.61 -7.87,42.31 -8.03,41.95 -8.19,41.58 -8.22,41.18 -8.26,40.78 -8.16,40.39 -8.06,40.01 -7.85,39.67 -7.63,39.33 -7.32,39.08 -7.01,38.83 -6.63,38.69 -6.26,38.56 -5.86,38.54 -5.46,38.53 -5.07,38.65 -4.69,38.77 -4.37,39.00 -4.04,39.24 -3.81,39.56 -3.58,39.89 -3.46,40.27 -3.34,40.65 -3.35,41.05 -3.36,41.45 -3.50,41.82 -3.64,42.20 -3.89,42.51 -4.14,42.82 -4.48,43.04 -4.81,43.25 -5.20,43.35 -5.59,43.45 -5.99,43.41 -6.39,43.38 -6.76,43.22 -7.12,43.07 -7.42,42.80 -7.72,42.53 -7.92,42.18 -8.11,41.83 -8.19,41.44 -8.26,41.05 -8.21,40.65 -8.15,40.26 -7.98,39.90 -7.80,39.54 -7.52,39.26 -7.23,38.97 -6.87,38.80 -6.52,38.62 -6.12,38.57 -5.72,38.51 -5.72,38.51 -5.72,38.51 -3.89,38.63 -2.06,38.75 -0.38,38.71 1.29,38.66 2.72,38.66 4.16,38.66 6.92,38.66 9.69,38.65 10.89,38.73 12.10,38.81 13.46,38.90 14.82,39.00 16.17,38.99 17.52,38.98 19.02,38.94 20.51,38.90 21.92,38.84 23.34,38.78 24.69,38.68 26.03,38.58 27.42,38.38 28.81,38.17 30.72,37.88 32.62,37.59 33.74,37.11 34.85,36.64 36.72,35.57 38.58,34.50 39.66,33.74 40.74,32.98 41.83,32.10 42.92,31.21 43.87,30.09 44.81,28.96 45.22,27.54 45.62,26.11 45.63,25.03 45.63,23.96 45.37,22.67 45.11,21.38 44.64,20.28 44.16,19.18 43.22,17.39 42.29,15.59 41.04,14.00 39.79,12.40 38.50,11.12 37.21,9.84 36.24,9.05 35.27,8.26 33.44,7.14 31.61,6.02 30.65,5.58 29.68,5.13 28.61,4.61 27.54,4.09 26.06,3.53 24.59,2.97 23.30,2.53 22.01,2.10 20.67,1.77 19.34,1.43 17.87,1.21 16.41,0.99 15.12,0.85 13.83,0.71 12.27,0.74 10.70,0.77 9.24,0.84 7.77,0.90 6.00,1.17 4.23,1.43 2.28,1.81 0.33,2.19 0.06,2.20 -0.20,2.20 -0.46,2.15 -0.72,2.09 -0.96,1.97 -1.20,1.86 -1.41,1.69 -1.61,1.51 -1.77,1.30 -1.93,1.08 -2.03,0.84 -2.13,0.59 -2.17,0.32 -2.21,0.06 -2.19,-0.20 -2.16,-0.46 -2.08,-0.71 -1.99,-0.97 -1.84,-1.19 -1.70,-1.42 -1.50,-1.60 -1.31,-1.78 -1.08,-1.91 -0.84,-2.04 -0.58,-2.12 -0.33,-2.19 -0.33,-2.19 L -0.33,-2.19 Z"></path></g><g transform="translate(114.5694308263478 108.72149123153173) rotate(0 -8.176904147115692 8.694429726046963)" stroke="none"><path fill="#2b8a3e" d="M 2.12,1.41 Q 2.12,1.41 1.42,2.49 0.71,3.57 -0.93,5.58 -2.59,7.59 -3.78,8.80 -4.96,10.00 -6.31,11.30 -7.66,12.60 -8.61,13.73 -9.56,14.86 -10.25,15.70 -10.95,16.54 -12.84,18.26 -14.74,19.97 -15.20,20.16 -15.65,20.35 -16.14,20.38 -16.64,20.42 -17.11,20.29 -17.59,20.17 -18.00,19.90 -18.41,19.63 -18.72,19.24 -19.02,18.85 -19.19,18.38 -19.35,17.92 -19.36,17.43 -19.36,16.93 -19.21,16.46 -19.06,15.99 -18.77,15.60 -18.48,15.20 -18.07,14.92 -17.67,14.64 -17.19,14.50 -16.72,14.36 -16.23,14.38 -15.73,14.40 -15.27,14.57 -14.81,14.75 -14.43,15.06 -14.05,15.38 -13.79,15.80 -13.53,16.22 -13.42,16.70 -13.31,17.18 -13.35,17.67 -13.40,18.16 -13.60,18.61 -13.80,19.06 -14.14,19.42 -14.47,19.78 -14.90,20.02 -15.34,20.26 -15.82,20.34 -16.31,20.43 -16.79,20.36 -17.28,20.29 -17.72,20.06 -18.16,19.84 -18.50,19.48 -18.85,19.13 -19.06,18.68 -19.27,18.24 -19.33,17.75 -19.39,17.26 -19.29,16.78 -19.20,16.29 -18.95,15.87 -18.70,15.44 -18.33,15.12 -17.96,14.79 -17.96,14.79 -17.96,14.79 -16.76,13.70 -15.57,12.61 -14.64,11.86 -13.71,11.10 -12.42,9.82 -11.14,8.54 -9.89,7.58 -8.63,6.62 -7.53,5.34 -6.44,4.07 -5.00,2.39 -3.57,0.71 -2.85,-0.35 -2.12,-1.41 -1.92,-1.65 -1.72,-1.88 -1.47,-2.06 -1.22,-2.24 -0.93,-2.36 -0.65,-2.47 -0.34,-2.51 -0.04,-2.55 0.26,-2.52 0.57,-2.49 0.86,-2.38 1.15,-2.28 1.40,-2.11 1.66,-1.94 1.87,-1.71 2.08,-1.48 2.22,-1.21 2.37,-0.94 2.45,-0.64 2.53,-0.34 2.53,-0.04 2.54,0.26 2.47,0.56 2.40,0.86 2.26,1.14 2.12,1.41 2.12,1.41 L 2.12,1.41 Z"></path></g><g transform="translate(96.76655091110888 107.89345030524157) rotate(0 9.211955304978346 9.729480883909673)" stroke="none"><path fill="#2b8a3e" d="M 2.07,-1.57 Q 2.07,-1.57 2.99,-0.30 3.92,0.96 4.65,1.77 5.39,2.59 6.21,3.45 7.04,4.31 8.53,5.61 10.02,6.91 11.12,7.90 12.21,8.88 13.04,9.67 13.86,10.47 15.11,11.53 16.35,12.60 18.53,14.95 20.71,17.30 20.99,17.73 21.27,18.15 21.41,18.64 21.54,19.13 21.51,19.63 21.48,20.14 21.29,20.61 21.10,21.08 20.77,21.47 20.44,21.86 20.01,22.12 19.57,22.38 19.07,22.48 18.58,22.59 18.07,22.53 17.57,22.48 17.11,22.26 16.65,22.05 16.28,21.69 15.91,21.34 15.68,20.89 15.44,20.44 15.36,19.94 15.28,19.44 15.36,18.94 15.45,18.44 15.69,17.99 15.93,17.54 16.30,17.20 16.67,16.85 17.13,16.64 17.59,16.42 18.10,16.37 18.60,16.32 19.10,16.43 19.59,16.54 20.03,16.81 20.46,17.07 20.79,17.46 21.12,17.85 21.30,18.32 21.49,18.79 21.51,19.30 21.54,19.81 21.40,20.30 21.26,20.78 20.98,21.20 20.69,21.62 20.28,21.93 19.88,22.23 19.40,22.39 18.91,22.55 18.41,22.55 17.90,22.55 17.42,22.39 16.94,22.22 16.53,21.91 16.13,21.60 16.13,21.60 16.13,21.60 14.63,19.94 13.13,18.28 11.87,16.92 10.60,15.56 9.74,14.66 8.88,13.77 8.15,12.96 7.42,12.15 6.15,10.83 4.87,9.52 4.05,8.70 3.24,7.89 2.35,6.92 1.46,5.95 0.67,4.99 -0.11,4.03 -1.09,2.80 -2.07,1.57 -2.22,1.30 -2.38,1.03 -2.47,0.73 -2.56,0.43 -2.58,0.12 -2.59,-0.19 -2.53,-0.50 -2.47,-0.80 -2.34,-1.09 -2.20,-1.37 -2.01,-1.62 -1.81,-1.86 -1.56,-2.05 -1.31,-2.24 -1.02,-2.37 -0.74,-2.49 -0.43,-2.54 -0.12,-2.60 0.19,-2.57 0.50,-2.55 0.80,-2.45 1.10,-2.35 1.36,-2.19 1.63,-2.02 1.85,-1.80 2.07,-1.57 2.07,-1.57 L 2.07,-1.57 Z"></path></g><g transform="translate(111.25726712118694 66.07738352758713) rotate(0 -6.520822294535037 7.348863220825393)" stroke="none"><path fill="#2b8a3e" d="M -1.77,1.95 Q -1.77,1.95 -2.44,1.39 -3.11,0.83 -4.64,0.71 -6.17,0.60 -7.31,0.68 -8.44,0.75 -8.98,1.68 -9.51,2.61 -10.34,3.66 -11.16,4.71 -11.52,5.99 -11.88,7.27 -11.96,8.52 -12.04,9.76 -11.67,10.92 -11.29,12.08 -9.98,12.78 -8.68,13.47 -7.46,13.52 -6.24,13.56 -5.16,13.06 -4.07,12.57 -5.06,12.06 -6.05,11.55 -5.36,11.93 -4.67,12.32 -5.12,12.24 -5.56,12.17 -5.98,11.99 -6.39,11.81 -6.75,11.53 -7.11,11.26 -7.39,10.91 -7.68,10.56 -7.87,10.15 -8.06,9.74 -8.15,9.29 -8.23,8.85 -8.21,8.40 -8.19,7.95 -8.06,7.52 -7.93,7.08 -7.70,6.69 -7.47,6.30 -7.16,5.98 -6.84,5.66 -6.46,5.42 -6.08,5.18 -5.65,5.04 -5.22,4.90 -4.77,4.87 -4.32,4.83 -0.98,4.60 2.35,4.36 2.95,4.43 3.54,4.51 4.08,4.77 4.62,5.04 5.05,5.46 5.48,5.88 5.75,6.42 6.02,6.95 6.11,7.55 6.19,8.14 6.08,8.73 5.97,9.32 5.68,9.85 5.39,10.37 4.95,10.78 4.50,11.18 3.95,11.43 3.40,11.67 2.80,11.72 2.20,11.77 1.62,11.63 1.04,11.49 0.53,11.17 0.02,10.85 -0.35,10.38 -0.73,9.92 -0.94,9.36 -1.15,8.79 -1.17,8.19 -1.19,7.59 -1.02,7.02 -0.85,6.44 -0.50,5.95 -0.16,5.46 0.32,5.11 0.81,4.75 1.38,4.57 1.95,4.39 2.55,4.40 3.15,4.42 3.72,4.62 4.28,4.82 4.76,5.20 5.23,5.57 5.55,6.07 5.88,6.58 6.03,7.16 6.18,7.74 6.13,8.34 6.09,8.94 5.86,9.49 5.62,10.05 5.22,10.50 4.83,10.95 4.30,11.25 3.78,11.55 3.19,11.66 2.61,11.78 2.61,11.78 2.61,11.78 0.17,11.91 -2.26,12.04 -3.47,12.18 -4.67,12.32 -5.12,12.24 -5.56,12.17 -5.98,11.99 -6.39,11.81 -6.75,11.53 -7.11,11.26 -7.39,10.91 -7.68,10.56 -7.87,10.15 -8.06,9.74 -8.15,9.30 -8.23,8.85 -8.21,8.40 -8.19,7.95 -8.06,7.52 -7.93,7.08 -7.70,6.69 -7.47,6.31 -7.16,5.98 -6.84,5.66 -6.46,5.42 -6.08,5.18 -5.65,5.04 -5.22,4.90 -4.77,4.87 -4.32,4.83 -4.03,4.92 -3.73,5.00 -2.21,5.27 -0.70,5.53 0.36,6.01 1.42,6.49 2.25,7.46 3.08,8.43 3.41,9.55 3.73,10.66 3.76,12.21 3.79,13.76 3.11,15.29 2.44,16.82 1.22,17.74 -0.00,18.66 -1.36,19.27 -2.72,19.88 -3.88,20.25 -5.04,20.62 -6.11,20.68 -7.18,20.74 -8.26,20.64 -9.34,20.53 -10.72,20.13 -12.11,19.72 -13.36,19.07 -14.60,18.42 -15.53,17.62 -16.46,16.82 -17.11,15.85 -17.77,14.88 -18.30,13.35 -18.84,11.81 -18.89,10.68 -18.95,9.55 -18.85,8.27 -18.75,6.99 -18.45,5.72 -18.15,4.44 -17.55,2.88 -16.95,1.32 -16.00,0.20 -15.05,-0.92 -14.05,-1.99 -13.04,-3.05 -12.05,-3.89 -11.06,-4.73 -10.02,-5.10 -8.98,-5.46 -7.82,-5.48 -6.66,-5.49 -5.61,-5.34 -4.55,-5.18 -3.30,-4.92 -2.04,-4.66 -0.77,-3.94 0.49,-3.21 1.13,-2.58 1.77,-1.95 1.98,-1.71 2.19,-1.47 2.34,-1.19 2.48,-0.90 2.55,-0.59 2.62,-0.28 2.62,0.03 2.62,0.35 2.54,0.66 2.46,0.96 2.30,1.25 2.15,1.53 1.94,1.76 1.72,2.00 1.46,2.18 1.19,2.35 0.89,2.46 0.59,2.57 0.28,2.61 -0.03,2.64 -0.35,2.60 -0.66,2.55 -0.96,2.44 -1.25,2.32 -1.51,2.14 -1.77,1.95 -1.77,1.95 L -1.77,1.95 Z"></path></g></svg>